# xmcd
#
# Track frame offsets:
#	150
#	64087
#	117790
#
# Disc length: 2947
#
# Revision: 4
# Processed by: cddbd v1.5.1PL0 Copyright (c) Steve Scherf et al.
# Submitted via: tcd 2.0b
# Normalized: r2:TDELIM( - ),TSWAP
#
DISCID=200b8103
DTITLE=Eastman Wind Ensenble/Hanson Benson Brant
DYEAR=1900
DGENRE=
TTITLE0=Hanson - 01Dies Natalis
TTITLE1=Benson - 02The Leaqves Are Falling
TTITLE2=Brant - 03Angels and Devils
EXTD=
EXTT0=
EXTT1=
EXTT2=
PLAYORDER=
